<svg viewBox="0 0 68 68" fill="none" xmlns="http://www.w3.org/2000/svg"><path d="M25.71 10.482L54.56 20.86c4.263 1.53 6.483 6.25 4.96 10.53L48.775 61.538c-1.523 4.281-6.222 6.51-10.484 4.98L9.439 56.142c-4.262-1.538-6.482-6.25-4.959-10.53l10.745-30.148c1.523-4.281 6.214-6.51 10.484-4.98" stroke="#fff"/><path d="M21.71.482L50.56 10.86c4.263 1.53 6.483 6.25 4.96 10.53L44.775 51.538c-1.523 4.281-6.222 6.51-10.484 4.98L5.439 46.142C1.177 44.603-1.043 39.89.48 35.61L11.225 5.462c1.523-4.281 6.214-6.51 10.484-4.98" fill="#201DB3"/><path fill-rule="evenodd" clip-rule="evenodd" d="M38.87 19.278c-.112-.12-.327-.189-.635-.228-.307-.03-.737-.05-1.29-.05-.563 0-1.014.01-1.331.03-.328.02-.584.06-.748.129a.74.74 0 00-.369.248c-.072.11-.133.248-.174.427l-.46 1.242-5.132 13.952h-.01l-5.685-15.273a1.88 1.88 0 00-.194-.378c-.072-.109-.184-.178-.348-.228a3.47 3.47 0 00-.717-.11c-.318-.02-.748-.03-1.301-.03-.655 0-1.157.02-1.516.04-.358.03-.625.09-.768.2-.154.109-.215.267-.184.476.03.218.112.506.256.874l6.954 17.547c.051.139.102.248.154.328.05.09.133.159.235.228.103.06.226.11.38.149.143.04.347.07.583.1.235.02.532.03.87.04.349.009.758.009 1.24.009.594 0 1.085-.01 1.464-.03.38-.01.666-.05.891-.1.215-.059.369-.138.471-.247.093-.11.175-.249.236-.427l6.964-17.557c.144-.358.236-.646.277-.854.02-.11.02-.2.01-.288a.65.65 0 00-.123-.219" fill="#fff"/></svg>